<svg xmlns="http://www.w3.org/2000/svg" viewBox="0 0 100 100">
  <polygon points="50,5 93,27.5 93,72.5 50,95 7,72.5 7,27.5" fill="none" stroke="#3BB5A0" stroke-width="8" stroke-linejoin="round"/>
  <line x1="50" y1="50" x2="50" y2="5" stroke="#B8DFD8" stroke-width="7" stroke-linecap="round"/>
  <line x1="50" y1="50" x2="93" y2="27.5" stroke="#B8DFD8" stroke-width="7" stroke-linecap="round"/>
  <line x1="50" y1="50" x2="93" y2="72.5" stroke="#B8DFD8" stroke-width="7" stroke-linecap="round"/>
  <line x1="50" y1="50" x2="50" y2="95" stroke="#B8DFD8" stroke-width="7" stroke-linecap="round"/>
  <line x1="50" y1="50" x2="7" y2="72.5" stroke="#B8DFD8" stroke-width="7" stroke-linecap="round"/>
  <line x1="50" y1="50" x2="7" y2="27.5" stroke="#B8DFD8" stroke-width="7" stroke-linecap="round"/>
  <circle cx="50" cy="50" r="12" fill="#3BB5A0"/>
  <circle cx="50" cy="50" r="5" fill="white"/>
  <circle cx="50" cy="5" r="6" fill="#3BB5A0"/>
  <circle cx="93" cy="27.5" r="6" fill="#3BB5A0"/>
  <circle cx="93" cy="72.5" r="6" fill="#3BB5A0"/>
  <circle cx="50" cy="95" r="6" fill="#3BB5A0"/>
  <circle cx="7" cy="72.5" r="6" fill="#3BB5A0"/>
  <circle cx="7" cy="27.5" r="6" fill="#3BB5A0"/>
</svg>
